<?xml version="1.0" standalone="no"?>
<!DOCTYPE svg PUBLIC "-//W3C//DTD SVG 20010904//EN"
 "http://www.w3.org/TR/2001/REC-SVG-20010904/DTD/svg10.dtd">
<svg version="1.0" xmlns="http://www.w3.org/2000/svg"
 width="512.000000pt" height="512.000000pt" viewBox="0 0 512.000000 512.000000"
 preserveAspectRatio="xMidYMid meet">
<metadata>
Created by potrace 1.14, written by Peter Selinger 2001-2017
</metadata>
<g transform="translate(0.000000,512.000000) scale(0.100000,-0.100000)"
fill="#000000" stroke="none">
<path d="M0 2560 l0 -2560 2560 0 2560 0 0 2560 0 2560 -2560 0 -2560 0 0
-2560z m1150 606 c0 -8 -15 -17 -35 -20 -25 -5 -39 -15 -50 -36 -8 -16 -15
-31 -15 -35 0 -3 59 -5 131 -5 119 0 130 -2 127 -17 -2 -12 -15 -20 -38 -23
-35 -5 -48 -21 -70 -83 -6 -18 -22 -33 -39 -40 -25 -9 -32 -20 -44 -69 l-15
-58 24 0 c12 0 25 -4 28 -9 10 -15 -35 -131 -57 -146 -18 -12 -67 -15 -279
-15 -280 0 -268 -3 -248 56 5 16 14 48 20 71 8 34 15 42 36 45 22 3 29 12 44
61 l18 57 -24 0 c-29 0 -29 5 -4 91 l21 69 94 0 93 0 18 53 c9 28 19 55 21 60
2 4 58 7 124 7 95 0 119 -3 119 -14z m818 2 c-3 -7 -18 -16 -35 -20 -36 -9
-46 -21 -62 -71 -7 -20 -21 -42 -31 -47 -10 -6 -84 -10 -164 -10 -89 0 -147
-4 -151 -10 -5 -9 -65 -209 -65 -217 0 -2 98 -3 218 -3 120 0 221 -3 225 -6
12 -12 -6 -34 -27 -34 -33 0 -64 -27 -71 -63 -10 -45 -30 -64 -76 -72 -37 -6
-40 -10 -54 -58 -9 -29 -53 -178 -98 -332 l-83 -280 -102 -3 c-59 -2 -102 1
-102 7 0 5 27 92 59 193 33 100 76 239 95 308 20 69 39 133 42 143 5 14 -1 17
-40 17 l-44 0 -23 -67 c-31 -96 -104 -265 -150 -348 -66 -121 -40 -109 -265
-115 l-197 -5 -22 -65 -22 -65 -91 -3 c-51 -1 -92 -1 -92 0 0 2 14 46 30 98
16 52 30 97 30 99 0 2 -37 -32 -83 -75 -82 -78 -147 -125 -147 -105 0 6 14 61
31 123 l32 112 71 71 71 70 -43 3 c-50 4 -51 9 -19 102 l22 65 86 3 87 3 11
44 11 45 125 0 c104 0 125 -3 125 -15 0 -8 -12 -18 -27 -21 -35 -8 -53 -22
-53 -40 0 -11 25 -14 120 -14 96 0 120 -3 120 -14 0 -8 -15 -17 -36 -20 -31
-6 -39 -14 -59 -60 -24 -54 -55 -76 -107 -76 -17 0 -18 -6 -13 -52 11 -97 27
-178 36 -178 13 0 117 183 160 282 22 49 68 184 104 301 36 117 80 254 96 305
l31 92 76 45 77 45 233 0 c178 0 233 -3 230 -12z m447 -30 c-7 -24 -29 -95
-49 -159 -20 -63 -36 -119 -36 -123 0 -4 41 -5 92 -4 l91 3 22 65 22 65 90 3
91 3 29 92 29 92 132 3 c113 2 132 0 132 -13 0 -9 -9 -15 -24 -15 -42 0 -54
-20 -82 -132 l-6 -28 179 0 c99 0 182 -3 186 -6 12 -12 -6 -34 -27 -34 -12 0
-29 -6 -38 -12 -14 -11 -98 -257 -98 -287 0 -7 22 -11 55 -11 42 0 55 -3 55
-15 0 -8 -8 -15 -19 -15 -29 0 -68 -37 -81 -75 -19 -58 -39 -65 -177 -65 -110
0 -122 -2 -128 -19 -8 -28 12 -186 28 -218 34 -66 94 -111 160 -121 l44 -7
-22 -78 c-13 -43 -25 -81 -29 -84 -8 -8 -94 15 -152 41 -107 49 -170 133 -200
266 l-16 69 -76 -102 c-43 -55 -115 -141 -161 -189 l-83 -88 -135 0 -134 0 58
48 c104 88 249 248 322 356 39 59 71 111 71 117 0 5 -29 9 -65 9 -36 0 -65 3
-65 8 0 4 12 42 27 85 l26 77 87 0 87 0 25 83 26 82 -101 3 c-79 2 -104 0
-116 -12 -8 -9 -39 -82 -68 -163 -29 -80 -57 -151 -63 -157 -5 -5 -36 -12 -67
-14 l-58 -4 -76 -257 -76 -256 -96 -3 c-74 -2 -97 0 -97 10 1 7 34 121 74 253
l73 240 33 6 c17 4 36 11 40 15 5 5 37 90 70 189 34 99 69 188 77 198 9 9 26
17 38 17 15 0 25 8 29 23 12 45 10 47 -69 47 -41 0 -75 1 -75 3 0 3 65 199 75
225 3 8 33 12 104 12 l99 0 -13 -42z m1985 16 c-6 -14 -10 -27 -10 -30 0 -2
81 -4 180 -4 146 0 180 -3 180 -14 0 -7 -13 -16 -29 -19 -36 -7 -47 -19 -75
-77 l-21 -45 -145 -5 c-143 -5 -144 -5 -151 -30 -14 -51 -18 -50 136 -50 83 0
145 -4 145 -9 0 -8 -80 -309 -96 -364 -8 -25 -63 -47 -119 -47 -54 0 -55 -6
-15 -86 31 -63 62 -88 123 -99 38 -7 53 -35 18 -35 -29 0 -68 -37 -81 -75 -10
-30 -16 -35 -43 -35 -43 0 -113 48 -149 101 -16 24 -38 75 -50 113 l-21 71
-13 -40 c-7 -22 -27 -86 -44 -142 l-32 -103 -94 0 c-56 0 -94 4 -94 10 0 5 13
52 30 102 l29 93 -37 -45 c-20 -25 -61 -71 -91 -102 l-54 -58 -129 0 -129 0
134 133 c74 72 144 147 156 165 l22 32 -70 0 c-39 0 -71 3 -71 6 0 3 30 98 66
210 l65 204 154 0 153 0 6 24 c3 13 9 31 12 40 5 14 -11 16 -145 16 -83 0
-151 3 -151 6 0 3 10 39 22 80 l21 74 154 0 154 0 10 30 11 30 94 0 94 0 -10
-26z m-2122 -251 c-2 -10 -13 -19 -24 -21 -40 -6 -63 -47 -123 -222 -34 -96
-69 -181 -78 -187 -19 -15 -173 -18 -173 -4 0 4 4 21 9 37 6 16 37 116 71 222
l61 192 130 0 c119 0 130 -2 127 -17z m1510 -35 c-3 -7 -17 -15 -32 -19 -39
-11 -56 -28 -77 -76 -10 -23 -27 -46 -38 -52 -26 -14 -231 -15 -231 -1 0 6 10
44 22 85 l22 75 169 0 c126 0 168 -3 165 -12z m-68 -237 c0 -13 -22 -27 -52
-35 -15 -3 -34 -16 -42 -29 -12 -19 -136 -429 -136 -450 0 -4 225 -7 501 -7
397 0 500 -3 496 -12 -2 -7 -13 -46 -23 -85 l-18 -73 -632 0 -632 0 22 83 c23
81 23 82 57 85 l34 3 48 172 c26 95 47 175 47 180 0 4 -14 7 -31 7 -24 0 -30
4 -25 15 3 9 15 47 27 85 l21 70 169 0 c93 0 169 -4 169 -9z"/>
<path d="M852 2849 c-17 -70 -16 -71 25 -67 37 3 37 4 49 61 l11 57 -37 0
c-36 0 -37 -1 -48 -51z"/>
<path d="M2866 2743 c-9 -38 -19 -76 -22 -85 -5 -16 2 -18 45 -18 l50 0 11 43
c6 23 15 58 21 77 13 51 13 50 -40 50 l-49 0 -16 -67z"/>
<path d="M3950 2674 c-16 -41 -13 -44 45 -44 50 0 56 2 65 26 16 41 13 44 -45
44 -50 0 -56 -2 -65 -26z"/>
<path d="M4252 2668 l-8 -33 54 -3 c30 -2 56 -1 58 1 2 2 7 18 10 35 l7 32
-56 0 c-55 0 -57 -1 -65 -32z"/>
</g>
</svg>
